<svg width="60" height="60" viewBox="0 0 60 60" fill="none" xmlns="http://www.w3.org/2000/svg">
<rect x="1.5" y="1.5" width="57" height="57" rx="8.5" fill="#00A86B"/>
<rect x="1.5" y="1.5" width="57" height="57" rx="8.5" stroke="black" stroke-width="3"/>
<path d="M13.333 46.6666V16.6666C13.333 15.7499 13.6597 14.9655 14.313 14.3133C14.9663 13.661 15.7508 13.3344 16.6663 13.3333H43.333C44.2497 13.3333 45.0347 13.6599 45.688 14.3133C46.3413 14.9666 46.6674 15.751 46.6663 16.6666V36.6666C46.6663 37.5833 46.3402 38.3683 45.688 39.0216C45.0358 39.6749 44.2508 40.001 43.333 39.9999H19.9997L13.333 46.6666ZM29.9997 34.9999C30.4719 34.9999 30.868 34.8399 31.188 34.5199C31.508 34.1999 31.6675 33.8044 31.6663 33.3333C31.6652 32.8621 31.5052 32.4666 31.1863 32.1466C30.8675 31.8266 30.4719 31.6666 29.9997 31.6666C29.5275 31.6666 29.1319 31.8266 28.813 32.1466C28.4941 32.4666 28.3341 32.8621 28.333 33.3333C28.3319 33.8044 28.4919 34.2005 28.813 34.5216C29.1341 34.8427 29.5297 35.0021 29.9997 34.9999ZM28.333 28.3333H31.6663V18.3333H28.333V28.3333Z" fill="white"/>
</svg>
