<svg width="60" height="60" viewBox="0 0 60 60" fill="none" xmlns="http://www.w3.org/2000/svg">
<rect x="1.5" y="1.5" width="57" height="57" rx="8.5" fill="#00A86B"/>
<rect x="1.5" y="1.5" width="57" height="57" rx="8.5" stroke="black" stroke-width="3"/>
<path d="M30 10.4845C27.3736 10.4845 24.7728 11.0018 22.3463 12.0069C19.9198 13.012 17.715 14.4852 15.8579 16.3424C12.1071 20.0931 10 25.1802 10 30.4845C10 39.3245 15.74 46.8245 23.68 49.4845C24.68 49.6445 25 49.0245 25 48.4845V45.1045C19.46 46.3045 18.28 42.4245 18.28 42.4245C17.36 40.1045 16.06 39.4845 16.06 39.4845C14.24 38.2445 16.2 38.2845 16.2 38.2845C18.2 38.4245 19.26 40.3445 19.26 40.3445C21 43.3845 23.94 42.4845 25.08 42.0045C25.26 40.7045 25.78 39.8245 26.34 39.3245C21.9 38.8245 17.24 37.1045 17.24 29.4845C17.24 27.2645 18 25.4845 19.3 24.0645C19.1 23.5645 18.4 21.4845 19.5 18.7845C19.5 18.7845 21.18 18.2445 25 20.8245C26.58 20.3845 28.3 20.1645 30 20.1645C31.7 20.1645 33.42 20.3845 35 20.8245C38.82 18.2445 40.5 18.7845 40.5 18.7845C41.6 21.4845 40.9 23.5645 40.7 24.0645C42 25.4845 42.76 27.2645 42.76 29.4845C42.76 37.1245 38.08 38.8045 33.62 39.3045C34.34 39.9245 35 41.1445 35 43.0045V48.4845C35 49.0245 35.32 49.6645 36.34 49.4845C44.28 46.8045 50 39.3245 50 30.4845C50 27.8581 49.4827 25.2573 48.4776 22.8308C47.4725 20.4043 45.9993 18.1995 44.1421 16.3424C42.285 14.4852 40.0802 13.012 37.6537 12.0069C35.2272 11.0018 32.6264 10.4845 30 10.4845Z" fill="white"/>
</svg>
